<svg width="100" height="103" viewBox="0 0 100 103" fill="none" xmlns="http://www.w3.org/2000/svg">
<circle cx="50" cy="50" r="50" fill="white"/>
<path d="M60.908 37.9606C60.6665 35.5257 59.6302 33.6341 57.799 32.2859C55.9678 30.9376 53.4826 30.2635 50.3434 30.2635C48.2103 30.2635 46.4093 30.5653 44.9403 31.169C43.4714 31.7526 42.3445 32.5676 41.5597 33.614C40.795 34.6604 40.4126 35.8477 40.4126 37.1758C40.3724 38.2826 40.6038 39.2485 41.1069 40.0735C41.6301 40.8986 42.3445 41.6129 43.25 42.2166C44.1555 42.8002 45.2019 43.3133 46.3892 43.756C47.5765 44.1786 48.8442 44.5408 50.1925 44.8427L55.7465 46.1708C58.4429 46.7745 60.9181 47.5794 63.1719 48.5856C65.4257 49.5917 67.3776 50.8293 69.0277 52.2983C70.6778 53.7673 71.9556 55.4979 72.8612 57.4901C73.7868 59.4822 74.2597 61.7662 74.2798 64.342C74.2597 68.1251 73.2938 71.4052 71.3821 74.1822C69.4905 76.939 66.7538 79.0821 63.1719 80.6115C59.6101 82.1207 55.3138 82.8754 50.283 82.8754C45.2925 82.8754 40.9459 82.1107 37.2433 80.5813C33.5607 79.052 30.6831 76.7881 28.6104 73.7898C26.5579 70.7713 25.4813 67.0385 25.3807 62.5913H38.0281C38.1689 64.6639 38.7625 66.3945 39.8089 67.783C40.8755 69.1514 42.2942 70.1877 44.065 70.892C45.8559 71.5762 47.8783 71.9183 50.1321 71.9183C52.3456 71.9183 54.2674 71.5964 55.8974 70.9524C57.5475 70.3085 58.8253 69.413 59.7308 68.266C60.6364 67.119 61.0891 65.8009 61.0891 64.3118C61.0891 62.9233 60.6766 61.7562 59.8516 60.8104C59.0466 59.8646 57.8594 59.0597 56.2898 58.3956C54.7403 57.7315 52.8387 57.1278 50.5849 56.5845L43.8537 54.8942C38.6418 53.6264 34.5266 51.6443 31.5082 48.9478C28.4897 46.2513 26.9905 42.6191 27.0107 38.0511C26.9905 34.3082 27.9866 31.0382 29.9989 28.2411C32.0314 25.444 34.8184 23.2607 38.3601 21.691C41.9018 20.1214 45.9264 19.3366 50.434 19.3366C55.022 19.3366 59.0265 20.1214 62.4474 21.691C65.8885 23.2607 68.5649 25.444 70.4766 28.2411C72.3883 31.0382 73.3743 34.2781 73.4347 37.9606H60.908Z" fill="black"/>
</svg>
